<svg width="24" height="24" viewBox="0 0 24 24" fill="none" xmlns="http://www.w3.org/2000/svg">
<path d="M18.3018 5.70814L18.6536 5.35642C19.2288 5.93168 19.2288 6.88826 18.6536 7.46352L14.1171 12L18.6536 16.5364C19.2388 17.1217 19.2388 18.0683 18.6536 18.6535C18.0683 19.2388 17.1217 19.2388 16.5364 18.6535L12 14.1171L7.46356 18.6535C6.87829 19.2388 5.93171 19.2388 5.34645 18.6535C4.76119 18.0683 4.76119 17.1217 5.34645 16.5364L5.69666 16.8866L5.34645 16.5364L9.88289 12L5.34645 7.46352C4.76119 6.87826 4.76119 5.93168 5.34645 5.34642C5.93171 4.76116 6.87829 4.76116 7.46355 5.34642L12.0004 9.88323L16.5364 5.35642L16.5368 5.35606M18.3018 5.70814L18.3 7.10997C18.68 6.72997 18.68 6.08997 18.3 5.70997C17.91 5.31997 17.28 5.31997 16.89 5.70997L16.5368 5.35606M18.3018 5.70814L18.6536 5.35642C18.0684 4.77128 17.1221 4.77116 16.5368 5.35606M18.3018 5.70814L16.5368 5.35606" fill="white" stroke="white"/>
</svg>
